<mxfile host="app.diagrams.net" modified="2024-06-17T20:11:46.774Z" agent="Mozilla/5.0 (Windows NT 10.0; Win64; x64) AppleWebKit/537.36 (KHTML, like Gecko) Chrome/123.0.0.0 Safari/537.36 OPR/109.0.0.0" etag="kE_BCoRhz2aJ0WaBijEU" version="24.5.4" type="github">
  <diagram name="PÃ¡gina-1" id="Q_VguiuVrEZQRqO3uicU">
    <mxGraphModel dx="1393" dy="766" grid="1" gridSize="10" guides="1" tooltips="1" connect="1" arrows="1" fold="1" page="1" pageScale="1" pageWidth="827" pageHeight="1169" math="0" shadow="0">
      <root>
        <mxCell id="0" />
        <mxCell id="1" parent="0" />
        <mxCell id="ADaKmyJAbjMcSbpKmV_Y-32" style="edgeStyle=orthogonalEdgeStyle;rounded=0;orthogonalLoop=1;jettySize=auto;html=1;dashed=1;" parent="1" source="ADaKmyJAbjMcSbpKmV_Y-15" target="ifLDUNCxiRWPRFAWvjkK-13" edge="1">
          <mxGeometry relative="1" as="geometry">
            <mxPoint x="1770" y="185" as="targetPoint" />
          </mxGeometry>
        </mxCell>
        <mxCell id="ADaKmyJAbjMcSbpKmV_Y-15" value="Inserir CRP&amp;nbsp; (caso for psicologo)" style="ellipse;whiteSpace=wrap;html=1;" parent="1" vertex="1">
          <mxGeometry x="1874.5" y="160" width="90" height="50" as="geometry" />
        </mxCell>
        <mxCell id="ADaKmyJAbjMcSbpKmV_Y-27" style="edgeStyle=orthogonalEdgeStyle;rounded=0;orthogonalLoop=1;jettySize=auto;html=1;entryX=0.5;entryY=1;entryDx=0;entryDy=0;dashed=1;" parent="1" source="ADaKmyJAbjMcSbpKmV_Y-20" edge="1">
          <mxGeometry relative="1" as="geometry">
            <mxPoint x="1345.0000000000002" y="530" as="targetPoint" />
          </mxGeometry>
        </mxCell>
        <mxCell id="ADaKmyJAbjMcSbpKmV_Y-20" value="Cancelar Consulta" style="ellipse;whiteSpace=wrap;html=1;" parent="1" vertex="1">
          <mxGeometry x="1300" y="620" width="90" height="60" as="geometry" />
        </mxCell>
        <mxCell id="ADaKmyJAbjMcSbpKmV_Y-29" value="&amp;lt;&amp;lt;extends&amp;gt;&amp;gt;" style="text;html=1;align=center;verticalAlign=middle;whiteSpace=wrap;rounded=0;" parent="1" vertex="1">
          <mxGeometry x="1350" y="580" width="60" height="30" as="geometry" />
        </mxCell>
        <mxCell id="ADaKmyJAbjMcSbpKmV_Y-33" value="&amp;lt;&amp;lt;extends&amp;gt;&amp;gt;" style="text;html=1;align=center;verticalAlign=middle;whiteSpace=wrap;rounded=0;" parent="1" vertex="1">
          <mxGeometry x="1840" y="250" width="60" height="30" as="geometry" />
        </mxCell>
        <mxCell id="ifLDUNCxiRWPRFAWvjkK-19" style="edgeStyle=orthogonalEdgeStyle;rounded=0;orthogonalLoop=1;jettySize=auto;html=1;entryX=0;entryY=0.5;entryDx=0;entryDy=0;endArrow=none;endFill=0;" parent="1" source="ifLDUNCxiRWPRFAWvjkK-2" target="ifLDUNCxiRWPRFAWvjkK-4" edge="1">
          <mxGeometry relative="1" as="geometry" />
        </mxCell>
        <mxCell id="ifLDUNCxiRWPRFAWvjkK-2" value="&lt;font style=&quot;vertical-align: inherit;&quot;&gt;&lt;font style=&quot;vertical-align: inherit;&quot;&gt;paciente&lt;/font&gt;&lt;/font&gt;" style="shape=umlActor;verticalLabelPosition=bottom;verticalAlign=top;html=1;outlineConnect=0;" parent="1" vertex="1">
          <mxGeometry x="712.5" y="320" width="30" height="60" as="geometry" />
        </mxCell>
        <mxCell id="ifLDUNCxiRWPRFAWvjkK-24" style="edgeStyle=orthogonalEdgeStyle;rounded=0;orthogonalLoop=1;jettySize=auto;html=1;entryX=1;entryY=0.5;entryDx=0;entryDy=0;endArrow=none;endFill=0;" parent="1" source="ifLDUNCxiRWPRFAWvjkK-3" target="ifLDUNCxiRWPRFAWvjkK-13" edge="1">
          <mxGeometry relative="1" as="geometry" />
        </mxCell>
        <mxCell id="ifLDUNCxiRWPRFAWvjkK-3" value="&lt;font style=&quot;vertical-align: inherit;&quot;&gt;&lt;font style=&quot;vertical-align: inherit;&quot;&gt;psicologo&lt;/font&gt;&lt;/font&gt;&lt;div&gt;&lt;font style=&quot;vertical-align: inherit;&quot;&gt;&lt;font style=&quot;vertical-align: inherit;&quot;&gt;&lt;br&gt;&lt;/font&gt;&lt;/font&gt;&lt;/div&gt;" style="shape=umlActor;verticalLabelPosition=bottom;verticalAlign=top;html=1;outlineConnect=0;" parent="1" vertex="1">
          <mxGeometry x="2040" y="320" width="30" height="60" as="geometry" />
        </mxCell>
        <mxCell id="ifLDUNCxiRWPRFAWvjkK-20" style="edgeStyle=orthogonalEdgeStyle;rounded=0;orthogonalLoop=1;jettySize=auto;html=1;entryX=0;entryY=0.5;entryDx=0;entryDy=0;endArrow=none;endFill=0;" parent="1" source="ifLDUNCxiRWPRFAWvjkK-4" target="ifLDUNCxiRWPRFAWvjkK-5" edge="1">
          <mxGeometry relative="1" as="geometry" />
        </mxCell>
        <mxCell id="ifLDUNCxiRWPRFAWvjkK-4" value="&lt;font style=&quot;vertical-align: inherit;&quot;&gt;&lt;font style=&quot;vertical-align: inherit;&quot;&gt;Registra-se&lt;/font&gt;&lt;/font&gt;" style="ellipse;whiteSpace=wrap;html=1;" parent="1" vertex="1">
          <mxGeometry x="810" y="325" width="90" height="50" as="geometry" />
        </mxCell>
        <mxCell id="ifLDUNCxiRWPRFAWvjkK-21" style="edgeStyle=orthogonalEdgeStyle;rounded=0;orthogonalLoop=1;jettySize=auto;html=1;endArrow=none;endFill=0;" parent="1" source="ifLDUNCxiRWPRFAWvjkK-5" target="ifLDUNCxiRWPRFAWvjkK-6" edge="1">
          <mxGeometry relative="1" as="geometry" />
        </mxCell>
        <mxCell id="ifLDUNCxiRWPRFAWvjkK-5" value="&lt;font style=&quot;vertical-align: inherit;&quot;&gt;&lt;font style=&quot;vertical-align: inherit;&quot;&gt;Efetuar login&lt;/font&gt;&lt;/font&gt;" style="ellipse;whiteSpace=wrap;html=1;" parent="1" vertex="1">
          <mxGeometry x="966" y="330" width="105" height="40" as="geometry" />
        </mxCell>
        <mxCell id="ifLDUNCxiRWPRFAWvjkK-22" style="edgeStyle=orthogonalEdgeStyle;rounded=0;orthogonalLoop=1;jettySize=auto;html=1;entryX=0;entryY=0.5;entryDx=0;entryDy=0;endArrow=none;endFill=0;" parent="1" source="ifLDUNCxiRWPRFAWvjkK-6" target="ifLDUNCxiRWPRFAWvjkK-10" edge="1">
          <mxGeometry relative="1" as="geometry">
            <Array as="points">
              <mxPoint x="1200" y="430" />
            </Array>
          </mxGeometry>
        </mxCell>
        <mxCell id="ifLDUNCxiRWPRFAWvjkK-23" style="edgeStyle=orthogonalEdgeStyle;rounded=0;orthogonalLoop=1;jettySize=auto;html=1;entryX=0;entryY=0.5;entryDx=0;entryDy=0;endArrow=none;endFill=0;" parent="1" source="ifLDUNCxiRWPRFAWvjkK-6" target="ifLDUNCxiRWPRFAWvjkK-7" edge="1">
          <mxGeometry relative="1" as="geometry" />
        </mxCell>
        <mxCell id="ifLDUNCxiRWPRFAWvjkK-6" value="&lt;font style=&quot;vertical-align: inherit;&quot;&gt;&lt;font style=&quot;vertical-align: inherit;&quot;&gt;&lt;font style=&quot;vertical-align: inherit;&quot;&gt;&lt;font style=&quot;vertical-align: inherit;&quot;&gt;Home&lt;/font&gt;&lt;/font&gt;&lt;/font&gt;&lt;/font&gt;" style="ellipse;whiteSpace=wrap;html=1;" parent="1" vertex="1">
          <mxGeometry x="1132" y="325" width="110" height="50" as="geometry" />
        </mxCell>
        <mxCell id="ifLDUNCxiRWPRFAWvjkK-7" value="Procurar profissionais" style="ellipse;whiteSpace=wrap;html=1;" parent="1" vertex="1">
          <mxGeometry x="1220" y="80" width="90" height="60" as="geometry" />
        </mxCell>
        <mxCell id="ifLDUNCxiRWPRFAWvjkK-8" value="Agendar consulta" style="ellipse;whiteSpace=wrap;html=1;" parent="1" vertex="1">
          <mxGeometry x="1300" y="470" width="90" height="60" as="geometry" />
        </mxCell>
        <mxCell id="ifLDUNCxiRWPRFAWvjkK-9" value="Pagamento" style="ellipse;whiteSpace=wrap;html=1;" parent="1" vertex="1">
          <mxGeometry x="1390" y="130" width="90" height="60" as="geometry" />
        </mxCell>
        <mxCell id="ifLDUNCxiRWPRFAWvjkK-10" value="&lt;font style=&quot;vertical-align: inherit;&quot;&gt;&lt;font style=&quot;vertical-align: inherit;&quot;&gt;tela_de_contato&lt;/font&gt;&lt;/font&gt;" style="ellipse;whiteSpace=wrap;html=1;" parent="1" vertex="1">
          <mxGeometry x="1300" y="400" width="90" height="60" as="geometry" />
        </mxCell>
        <mxCell id="ifLDUNCxiRWPRFAWvjkK-25" style="edgeStyle=orthogonalEdgeStyle;rounded=0;orthogonalLoop=1;jettySize=auto;html=1;entryX=1;entryY=0.5;entryDx=0;entryDy=0;endArrow=none;endFill=0;" parent="1" source="ifLDUNCxiRWPRFAWvjkK-13" target="ifLDUNCxiRWPRFAWvjkK-14" edge="1">
          <mxGeometry relative="1" as="geometry" />
        </mxCell>
        <mxCell id="ifLDUNCxiRWPRFAWvjkK-13" value="&lt;font style=&quot;vertical-align: inherit;&quot;&gt;&lt;font style=&quot;vertical-align: inherit;&quot;&gt;Registra-se&lt;/font&gt;&lt;/font&gt;" style="ellipse;whiteSpace=wrap;html=1;" parent="1" vertex="1">
          <mxGeometry x="1870" y="325" width="90" height="50" as="geometry" />
        </mxCell>
        <mxCell id="ifLDUNCxiRWPRFAWvjkK-26" style="edgeStyle=orthogonalEdgeStyle;rounded=0;orthogonalLoop=1;jettySize=auto;html=1;entryX=1;entryY=0.5;entryDx=0;entryDy=0;endArrow=none;endFill=0;" parent="1" source="ifLDUNCxiRWPRFAWvjkK-14" target="ifLDUNCxiRWPRFAWvjkK-15" edge="1">
          <mxGeometry relative="1" as="geometry" />
        </mxCell>
        <mxCell id="ifLDUNCxiRWPRFAWvjkK-14" value="&lt;font style=&quot;vertical-align: inherit;&quot;&gt;&lt;font style=&quot;vertical-align: inherit;&quot;&gt;Efetuar login&lt;/font&gt;&lt;/font&gt;" style="ellipse;whiteSpace=wrap;html=1;" parent="1" vertex="1">
          <mxGeometry x="1659" y="330" width="105" height="40" as="geometry" />
        </mxCell>
        <mxCell id="ifLDUNCxiRWPRFAWvjkK-27" style="edgeStyle=orthogonalEdgeStyle;rounded=0;orthogonalLoop=1;jettySize=auto;html=1;entryX=1;entryY=0.5;entryDx=0;entryDy=0;endArrow=none;endFill=0;" parent="1" source="ifLDUNCxiRWPRFAWvjkK-15" target="ifLDUNCxiRWPRFAWvjkK-10" edge="1">
          <mxGeometry relative="1" as="geometry">
            <Array as="points">
              <mxPoint x="1520" y="430" />
            </Array>
          </mxGeometry>
        </mxCell>
        <mxCell id="ifLDUNCxiRWPRFAWvjkK-29" style="edgeStyle=orthogonalEdgeStyle;rounded=0;orthogonalLoop=1;jettySize=auto;html=1;entryX=1;entryY=0.5;entryDx=0;entryDy=0;endArrow=none;endFill=0;" parent="1" source="ifLDUNCxiRWPRFAWvjkK-15" target="ifLDUNCxiRWPRFAWvjkK-8" edge="1">
          <mxGeometry relative="1" as="geometry">
            <Array as="points">
              <mxPoint x="1545" y="500" />
            </Array>
          </mxGeometry>
        </mxCell>
        <mxCell id="ifLDUNCxiRWPRFAWvjkK-30" style="edgeStyle=orthogonalEdgeStyle;rounded=0;orthogonalLoop=1;jettySize=auto;html=1;entryX=1;entryY=0.5;entryDx=0;entryDy=0;endArrow=none;endFill=0;" parent="1" source="ifLDUNCxiRWPRFAWvjkK-15" target="ifLDUNCxiRWPRFAWvjkK-9" edge="1">
          <mxGeometry relative="1" as="geometry">
            <Array as="points">
              <mxPoint x="1545" y="160" />
            </Array>
          </mxGeometry>
        </mxCell>
        <mxCell id="ifLDUNCxiRWPRFAWvjkK-15" value="Painel_psicologo" style="ellipse;whiteSpace=wrap;html=1;" parent="1" vertex="1">
          <mxGeometry x="1490" y="325" width="110" height="50" as="geometry" />
        </mxCell>
        <mxCell id="ifLDUNCxiRWPRFAWvjkK-16" style="edgeStyle=orthogonalEdgeStyle;rounded=0;orthogonalLoop=1;jettySize=auto;html=1;dashed=1;" parent="1" source="ifLDUNCxiRWPRFAWvjkK-17" edge="1">
          <mxGeometry relative="1" as="geometry">
            <mxPoint x="867.75" y="325" as="targetPoint" />
          </mxGeometry>
        </mxCell>
        <mxCell id="ifLDUNCxiRWPRFAWvjkK-17" value="Inserir cpf (caso seja paciente)" style="ellipse;whiteSpace=wrap;html=1;" parent="1" vertex="1">
          <mxGeometry x="827.25" y="140" width="102.75" height="70" as="geometry" />
        </mxCell>
        <mxCell id="ifLDUNCxiRWPRFAWvjkK-18" value="&amp;lt;&amp;lt;extends&amp;gt;&amp;gt;" style="text;html=1;align=center;verticalAlign=middle;whiteSpace=wrap;rounded=0;" parent="1" vertex="1">
          <mxGeometry x="792.75" y="250" width="60" height="30" as="geometry" />
        </mxCell>
        <mxCell id="ifLDUNCxiRWPRFAWvjkK-28" style="edgeStyle=orthogonalEdgeStyle;rounded=0;orthogonalLoop=1;jettySize=auto;html=1;entryX=0.032;entryY=0.682;entryDx=0;entryDy=0;entryPerimeter=0;endArrow=none;endFill=0;" parent="1" source="ifLDUNCxiRWPRFAWvjkK-6" target="ifLDUNCxiRWPRFAWvjkK-8" edge="1">
          <mxGeometry relative="1" as="geometry">
            <Array as="points">
              <mxPoint x="1187" y="511" />
            </Array>
          </mxGeometry>
        </mxCell>
      </root>
    </mxGraphModel>
  </diagram>
</mxfile>
